<?xml version="1.0" encoding="utf-8"?>
<!-- Generator: Adobe Illustrator 19.1.0, SVG Export Plug-In . SVG Version: 6.00 Build 0)  -->
<svg version="1.1" id="Layer_1" xmlns="http://www.w3.org/2000/svg" xmlns:xlink="http://www.w3.org/1999/xlink" x="0px" y="0px"
	 viewBox="0 0 595 584" style="enable-background:new 0 0 595 584;" xml:space="preserve">
<style type="text/css">
	.st0{fill:#FFFFFF;stroke:#423528;stroke-width:0.5;stroke-miterlimit:10;}
	.st1{fill:#FFFFFF;stroke:#423528;stroke-width:0.25;stroke-miterlimit:10;}
	.st2{fill:#423528;}
	.st3{opacity:0.3;}
	.st4{fill:#ED2224;}
	.st5{fill:#010101;}
	.st6{font-family:'Arial-BoldMT';}
	.st7{font-size:71.264px;}
</style>
<g id="Compass_1_">
	<g>
		<path class="st0" d="M498.7,291.5c0,105.1-85.2,190.3-190.3,190.3s-190.3-85.2-190.3-190.3s85.2-190.3,190.3-190.3
			S498.7,186.4,498.7,291.5z"/>
		<path class="st1" d="M492,291.5c0,101.4-82.2,183.6-183.6,183.6c-101.4,0-183.6-82.2-183.6-183.6c0-101.4,82.2-183.6,183.6-183.6
			C409.8,107.9,492,190.1,492,291.5z"/>
		<path class="st1" d="M463.9,291.5c0,85.9-69.6,155.5-155.5,155.5c-85.9,0-155.5-69.6-155.5-155.5c0-85.9,69.6-155.5,155.5-155.5
			C394.3,135.9,463.9,205.6,463.9,291.5z"/>
		<path class="st1" d="M457.2,291.5c0,82.2-66.6,148.8-148.8,148.8s-148.8-66.6-148.8-148.8c0-82.2,66.6-148.8,148.8-148.8
			S457.2,209.3,457.2,291.5z"/>
		<g>
			<path class="st2" d="M326.4,433.8c-0.9,0-1.7-0.7-1.8-1.6c-0.1-1,0.6-1.9,1.6-2c1-0.1,1.9,0.6,2.1,1.5c0.1,1-0.5,1.9-1.5,2
				l-0.2,0C326.5,433.8,326.4,433.8,326.4,433.8z M337.1,432c-0.8,0-1.6-0.6-1.8-1.4c-0.2-1,0.4-1.9,1.4-2.1l0.2,0
				c1-0.2,1.9,0.4,2.1,1.4c0.2,1-0.4,1.9-1.4,2.1l-0.2,0C337.3,432,337.2,432,337.1,432z M283.2,432.6c-0.1,0-0.2,0-0.3,0l-0.2,0
				c-1-0.2-1.6-1.1-1.4-2.1c0.2-1,1.1-1.6,2.1-1.4c1,0.2,1.7,1.1,1.5,2.1C284.7,432,284,432.6,283.2,432.6z M347.7,429.4
				c-0.8,0-1.5-0.5-1.7-1.3c-0.3-0.9,0.3-1.9,1.2-2.2l0.2-0.1c0.9-0.3,1.9,0.3,2.2,1.2c0.3,0.9-0.3,1.9-1.2,2.2l-0.2,0
				C348,429.4,347.8,429.4,347.7,429.4z M272.5,430.3c-0.2,0-0.3,0-0.5-0.1l-0.2,0c-1-0.2-1.5-1.2-1.3-2.2c0.2-1,1.2-1.5,2.2-1.3
				l0.2,0c1,0.2,1.5,1.2,1.3,2.2C274,429.8,273.3,430.3,272.5,430.3z M358,426c-0.7,0-1.4-0.4-1.7-1.2c-0.3-0.9,0.1-1.9,1.1-2.3
				c0.9-0.3,2,0.1,2.4,1c0.3,0.9,0,1.9-1,2.3l-0.2,0.1C358.4,426,358.2,426,358,426z M262.1,427.2c-0.2,0-0.4,0-0.6-0.1l-0.2-0.1
				c-0.9-0.3-1.4-1.3-1.1-2.3c0.3-0.9,1.3-1.4,2.3-1.1c0.9,0.3,1.5,1.4,1.2,2.3C263.4,426.7,262.8,427.1,262.1,427.2z M368.1,421.8
				c-0.7,0-1.3-0.4-1.6-1c-0.4-0.9,0-2,0.9-2.4c0.9-0.4,2-0.1,2.4,0.8c0.4,0.9,0.1,1.9-0.8,2.3l-0.2,0.1
				C368.6,421.8,368.3,421.8,368.1,421.8z M251.9,423.2c-0.2,0-0.5,0-0.7-0.1l-0.1-0.1c-0.9-0.4-1.3-1.4-0.9-2.3
				c0.4-0.9,1.4-1.3,2.3-0.9l0.2,0.1c0.9,0.4,1.3,1.4,0.9,2.3C253.3,422.8,252.6,423.2,251.9,423.2z M377.8,416.9
				c-0.6,0-1.3-0.3-1.6-0.9c-0.5-0.9-0.2-1.9,0.7-2.4c0.9-0.5,2-0.2,2.5,0.6c0.5,0.9,0.3,1.9-0.6,2.4l-0.2,0.1
				C378.3,416.8,378,416.9,377.8,416.9z M242.1,418.5c-0.3,0-0.6-0.1-0.9-0.2l-0.1-0.1c-0.9-0.5-1.2-1.5-0.8-2.4
				c0.5-0.9,1.5-1.2,2.4-0.8l0.2,0.1c0.9,0.5,1.2,1.5,0.7,2.4C243.4,418.1,242.7,418.5,242.1,418.5z M387,411.2
				c-0.6,0-1.2-0.3-1.5-0.8c-0.6-0.8-0.3-1.9,0.5-2.5c0,0,0.2-0.1,0.2-0.1c0.8-0.5,1.9-0.3,2.5,0.5c0.5,0.8,0.3,1.9-0.5,2.5l-1-1.5
				l0.9,1.6C387.7,411.1,387.4,411.2,387,411.2z M232.6,413c-0.3,0-0.6-0.1-0.9-0.3l-0.2-0.1c-0.8-0.5-1-1.6-0.5-2.5
				c0.5-0.8,1.6-1,2.5-0.5c0.8,0.5,1.1,1.7,0.6,2.5C233.8,412.7,233.2,413,232.6,413z M395.9,404.8c-0.5,0-1.1-0.2-1.4-0.7
				c-0.6-0.8-0.5-1.9,0.3-2.5c0,0,0.2-0.1,0.2-0.1c0.8-0.6,1.9-0.5,2.5,0.3c0.6,0.8,0.5,1.9-0.3,2.5l-1.1-1.4l1,1.5
				C396.6,404.7,396.2,404.8,395.9,404.8z M223.7,406.9c-0.4,0-0.8-0.1-1.1-0.3c0,0,0,0,0,0c-0.8-0.6-1-1.7-0.4-2.5
				c0.6-0.8,1.6-1,2.4-0.4c0,0,0.2,0.1,0.2,0.1c0.8,0.6,1,1.7,0.4,2.5C224.8,406.6,224.2,406.9,223.7,406.9z M215.1,400
				c-0.4,0-0.8-0.1-1.1-0.4l-0.2-0.1c-0.7-0.6-0.8-1.8-0.2-2.5c0.7-0.7,1.8-0.8,2.5-0.2c0.8,0.6,0.9,1.8,0.3,2.6
				C216.1,399.8,215.7,400,215.1,400z M419.1,382c-0.4,0-0.8-0.1-1.1-0.4c-0.8-0.6-0.9-1.7-0.3-2.5c0,0,0.1-0.1,0.1-0.2
				c0.6-0.8,1.7-0.9,2.5-0.3c0.8,0.6,0.9,1.7,0.3,2.5l-1.4-1.1l1.3,1.2C420.1,381.7,419.6,382,419.1,382z M199.8,384.5
				c-0.5,0-0.9-0.2-1.3-0.6c0,0-0.1-0.1-0.1-0.2c-0.6-0.8-0.5-1.9,0.2-2.5c0.8-0.6,1.9-0.5,2.5,0.2c0.6,0.8,0.6,1.9-0.2,2.6
				C200.6,384.4,200.2,384.5,199.8,384.5z M425.6,373.2c-0.3,0-0.7-0.1-1-0.3c-0.8-0.5-1-1.6-0.5-2.5l0.1-0.2c0.6-0.8,1.7-1,2.5-0.4
				c0.8,0.6,1,1.7,0.4,2.5l-0.1,0.1C426.7,372.9,426.2,373.2,425.6,373.2z M193.1,376c-0.5,0-1-0.2-1.4-0.7c0,0-0.1-0.2-0.1-0.2
				c-0.6-0.8-0.4-1.9,0.4-2.5c0.8-0.6,1.9-0.4,2.5,0.4c0.6,0.8,0.4,2-0.4,2.5C193.8,375.8,193.5,376,193.1,376z M431.4,364
				c-0.3,0-0.6-0.1-0.9-0.2c-0.9-0.5-1.2-1.6-0.7-2.4l0.1-0.2c0.5-0.8,1.6-1.1,2.4-0.6c0.8,0.5,1.1,1.6,0.6,2.4l-0.1,0.1
				C432.7,363.7,432.1,364,431.4,364z M187.2,366.9c-0.6,0-1.2-0.3-1.6-0.9l1.5-0.9l-1.6,0.8c-0.5-0.8-0.3-1.9,0.5-2.5
				c0.8-0.5,1.9-0.3,2.5,0.5c0,0,0.1,0.2,0.1,0.2c0.5,0.8,0.2,1.9-0.6,2.4C187.8,366.9,187.5,366.9,187.2,366.9z M436.5,354.4
				c-0.3,0-0.6-0.1-0.8-0.2c-0.9-0.4-1.2-1.5-0.8-2.4c0.4-0.9,1.5-1.3,2.4-0.9c0.9,0.4,1.3,1.4,0.9,2.3l-0.1,0.2
				C437.8,354,437.2,354.4,436.5,354.4z M181.7,357.4c-0.6,0-1.2-0.3-1.5-0.9l-0.1-0.2c-0.4-0.9-0.1-2,0.8-2.4
				c0.9-0.4,2-0.1,2.4,0.8c0.4,0.9,0.1,2-0.7,2.5C182.3,357.3,182,357.4,181.7,357.4z M440.9,344.4c-0.2,0-0.5,0-0.7-0.1
				c-0.9-0.4-1.4-1.4-1-2.3c0.4-0.9,1.4-1.4,2.3-1.1c0.9,0.4,1.4,1.3,1,2.2l-0.1,0.2C442.3,344,441.6,344.4,440.9,344.4z
				 M177.2,347.5c-0.7,0-1.3-0.4-1.6-1c0,0-0.1-0.2-0.1-0.2c-0.4-0.9,0.1-2,1-2.3c0.9-0.4,2,0.1,2.3,1c0.4,0.9-0.1,2-1,2.4
				C177.6,347.5,177.4,347.5,177.2,347.5z M444.5,334.1c-0.2,0-0.4,0-0.6-0.1c-0.9-0.3-1.4-1.3-1.1-2.2c0.3-0.9,1.3-1.5,2.2-1.3
				c0.9,0.3,1.5,1.2,1.2,2.2l-0.1,0.2C445.9,333.6,445.2,334.1,444.5,334.1z M173.4,337.4c-0.8,0-1.5-0.5-1.7-1.2l0-0.1
				c-0.3-0.9,0.2-1.9,1.1-2.3c0.9-0.3,1.9,0.2,2.3,1.1l0.1,0.2c0.3,0.9-0.2,1.9-1.2,2.2C173.8,337.4,173.6,337.4,173.4,337.4z
				 M447.2,323.6c-0.1,0-0.2,0-0.4,0c-1-0.2-1.6-1.1-1.4-2.1l0-0.2c0.2-1,1.2-1.6,2.1-1.3c1,0.2,1.6,1.2,1.3,2.1l0,0.1
				C448.8,323,448.1,323.6,447.2,323.6z M170.4,326.9c-0.8,0-1.5-0.5-1.7-1.3l-0.1-0.2c-0.2-1,0.4-1.9,1.3-2.1
				c1-0.2,1.9,0.4,2.1,1.3c0.2,1-0.3,2-1.3,2.2C170.7,326.9,170.5,326.9,170.4,326.9z M449.2,312.9c-0.1,0-0.2,0-0.3,0
				c-1-0.2-1.6-1.1-1.5-2.1c0.1-1,1-1.7,2-1.6c1,0.1,1.7,1,1.5,1.9l0,0.2C450.8,312.2,450,312.9,449.2,312.9z M168.2,316.3
				c-0.9,0-1.6-0.6-1.8-1.5l0-0.1c-0.2-1,0.4-1.9,1.4-2.1c1-0.2,1.9,0.4,2.1,1.4l0,0.2c0.2,1-0.5,1.9-1.5,2
				C168.4,316.3,168.3,316.3,168.2,316.3z M167.6,272.8c-0.1,0-0.2,0-0.2,0c-1-0.1-1.7-0.9-1.5-1.9l0-0.2c0.1-1,1-1.7,2-1.5
				c1,0.1,1.7,1,1.5,2C169.3,272.1,168.5,272.8,167.6,272.8z M448.7,269.2c-0.9,0-1.6-0.6-1.8-1.4l0-0.2c-0.2-1,0.5-1.9,1.5-2
				c1-0.2,1.9,0.5,2,1.5l0,0.1c0.2,1-0.4,1.9-1.4,2.1C448.9,269.2,448.8,269.2,448.7,269.2z M169.6,262.2c-0.1,0-0.3,0-0.4,0
				c-1-0.2-1.6-1.2-1.3-2.1l0-0.1c0.2-1,1.1-1.6,2.1-1.4c1,0.2,1.6,1.1,1.4,2.1l0,0.2C171.1,261.6,170.4,262.2,169.6,262.2z
				 M446.5,258.5c-0.8,0-1.5-0.5-1.7-1.3l0-0.2c-0.2-1,0.3-1.9,1.3-2.2c1-0.2,1.9,0.3,2.2,1.3l0,0.2c0.2,1-0.3,1.9-1.3,2.2
				C446.7,258.5,446.6,258.5,446.5,258.5z M172.3,251.6c-0.2,0-0.3,0-0.5-0.1c-0.9-0.3-1.5-1.2-1.2-2.2l0.1-0.2
				c0.3-0.9,1.3-1.4,2.2-1.1c0.9,0.3,1.4,1.3,1.1,2.2C173.8,251,173.1,251.6,172.3,251.6z M443.4,248c-0.7,0-1.4-0.5-1.7-1.2
				l-0.1-0.2c-0.3-0.9,0.2-1.9,1.2-2.2c0.9-0.3,1.9,0.2,2.2,1.2l0,0.1c0.3,0.9-0.2,1.9-1.1,2.3C443.8,248,443.6,248,443.4,248z
				 M175.8,241.3c-0.2,0-0.5,0-0.7-0.1c-0.9-0.4-1.4-1.4-1-2.3l0-0.1c0.3-0.9,1.4-1.4,2.3-1.1c0.9,0.3,1.4,1.4,1.1,2.3l-0.1,0.2
				C177.2,240.9,176.5,241.3,175.8,241.3z M439.6,237.8c-0.7,0-1.4-0.4-1.7-1.1c-0.4-0.9,0-2,0.9-2.4c0.9-0.4,1.9,0,2.3,0.9l0.1,0.2
				c0.4,0.9,0,2-1,2.3C440.1,237.8,439.8,237.8,439.6,237.8z M180.2,231.3c-0.3,0-0.5,0-0.7-0.2c-0.9-0.4-1.3-1.4-0.9-2.3l0.1-0.2
				c0.4-0.9,1.5-1.2,2.4-0.8c0.9,0.4,1.2,1.5,0.8,2.4C181.5,230.8,180.8,231.2,180.2,231.3z M435,228c-0.6,0-1.3-0.3-1.6-0.9
				l-0.1-0.2c-0.4-0.9-0.1-2,0.8-2.4c0.9-0.4,1.9-0.1,2.4,0.8l0.1,0.1c0.5,0.9,0.1,1.9-0.7,2.4C435.6,227.9,435.3,228,435,228z
				 M185.3,221.7c-0.3,0-0.6-0.1-0.9-0.2c-0.8-0.5-1.1-1.6-0.6-2.4l0.1-0.1c0.5-0.9,1.6-1.2,2.4-0.7c0.9,0.5,1.2,1.6,0.7,2.4
				l-0.1,0.2C186.4,221.4,185.9,221.7,185.3,221.7z M429.7,218.5c-0.6,0-1.1-0.3-1.5-0.8c0,0-0.1-0.2-0.1-0.2
				c-0.5-0.8-0.3-1.9,0.6-2.5c0.8-0.5,1.9-0.3,2.5,0.6c0,0,0,0.1,0.1,0.1c0.5,0.8,0.3,2-0.5,2.5C430.3,218.4,430,218.5,429.7,218.5z
				 M191.1,212.5c-0.4,0-0.7-0.1-1-0.3c-0.8-0.6-1-1.7-0.4-2.5l0.1-0.1c0.5-0.8,1.7-1,2.5-0.5c0.8,0.5,1,1.6,0.5,2.5l-0.1,0.2
				C192.2,212.2,191.6,212.5,191.1,212.5z M423.7,209.4c-0.6,0-1.1-0.3-1.5-0.8c-0.6-0.8-0.4-2,0.4-2.5c0.8-0.6,1.8-0.5,2.4,0.3
				c0,0,0.1,0.2,0.1,0.2c0.6,0.8,0.4,1.9-0.4,2.5C424.4,209.3,424,209.4,423.7,209.4z M197.6,203.7c-0.4,0-0.8-0.1-1.1-0.4
				c-0.8-0.6-0.9-1.7-0.3-2.5l1.4,1.1l-1.3-1.2c0.6-0.8,1.7-0.9,2.5-0.3c0.8,0.6,0.9,1.7,0.3,2.5c0,0-0.1,0.2-0.1,0.2
				C198.6,203.5,198.1,203.7,197.6,203.7z M417,200.9c-0.5,0-1-0.2-1.4-0.6c-0.6-0.8-0.6-1.9,0.2-2.6c0.8-0.6,1.8-0.6,2.4,0.1
				c0,0,0.1,0.1,0.1,0.2c0.6,0.8,0.5,1.9-0.2,2.5C417.7,200.7,417.3,200.9,417,200.9z M220.7,180.8c-0.5,0-1.1-0.2-1.4-0.7
				c-0.6-0.8-0.5-1.9,0.3-2.5l1.1,1.4l-1-1.5c0.8-0.6,1.9-0.5,2.5,0.3c0.6,0.8,0.5,1.9-0.3,2.5c0,0-0.2,0.1-0.2,0.1
				C221.5,180.7,221.1,180.8,220.7,180.8z M393.2,178.6c-0.4,0-0.7-0.1-1.1-0.3l-0.2-0.1c-0.8-0.6-1-1.7-0.4-2.5
				c0.6-0.8,1.7-1,2.5-0.4l0.1,0.1c0.8,0.6,1,1.7,0.4,2.5C394.2,178.3,393.7,178.6,393.2,178.6z M229.6,174.4
				c-0.6,0-1.2-0.3-1.5-0.8c-0.5-0.8-0.3-1.9,0.5-2.5l0.1-0.1c0.8-0.6,1.9-0.4,2.5,0.4c0.6,0.8,0.4,1.9-0.4,2.5l-0.2,0.1
				C230.2,174.3,229.9,174.4,229.6,174.4z M384.2,172.4c-0.3,0-0.7-0.1-1-0.3c-0.8-0.5-1.2-1.7-0.6-2.5c0.5-0.8,1.6-1.1,2.4-0.6
				l0.2,0.1c0.8,0.5,1,1.6,0.5,2.5C385.3,172.1,384.8,172.4,384.2,172.4z M238.9,168.7c-0.6,0-1.3-0.3-1.6-0.9
				c-0.5-0.9-0.3-1.9,0.6-2.4l0.2-0.1c0.9-0.5,1.9-0.2,2.4,0.7c0.5,0.9,0.2,1.9-0.7,2.4C239.5,168.6,239.2,168.7,238.9,168.7z
				 M374.8,166.9c-0.3,0-0.6-0.1-0.8-0.2l-0.2-0.1c-0.9-0.5-1.2-1.5-0.7-2.4c0.5-0.9,1.5-1.2,2.4-0.7l0.1,0.1
				c0.9,0.5,1.2,1.5,0.8,2.4C376,166.6,375.4,166.9,374.8,166.9z M248.6,163.7c-0.7,0-1.4-0.4-1.7-1c-0.4-0.9-0.1-1.9,0.8-2.3
				l0.2-0.1c0.9-0.4,2,0,2.4,0.9c0.4,0.9,0,2-0.9,2.4C249.2,163.6,248.9,163.7,248.6,163.7z M364.9,162.2c-0.2,0-0.5,0-0.7-0.1
				L364,162c-0.9-0.4-1.3-1.4-0.9-2.3c0.4-0.9,1.4-1.3,2.3-0.9l0.1,0.1c0.9,0.4,1.3,1.4,0.9,2.3
				C366.3,161.8,365.6,162.2,364.9,162.2z M258.5,159.6c-0.7,0-1.4-0.4-1.7-1.2c-0.3-0.9,0.1-1.9,1-2.3l0.6,1.7L258,156
				c0.9-0.4,2,0.1,2.3,1c0.4,0.9-0.1,2-1,2.3c0,0-0.2,0.1-0.2,0.1C258.9,159.5,258.7,159.6,258.5,159.6z M354.8,158.3
				c-0.2,0-0.4,0-0.6-0.1l-0.2-0.1c-0.9-0.3-1.4-1.3-1.1-2.3c0.3-0.9,1.3-1.4,2.3-1.1l0.2,0.1c0.9,0.3,1.4,1.3,1.1,2.3
				C356.2,157.8,355.5,158.3,354.8,158.3z M268.9,156.1c-0.8,0-1.5-0.5-1.7-1.3c-0.3-0.9,0.3-1.9,1.2-2.2l0.1,0
				c0.9-0.3,1.9,0.3,2.2,1.2c0.3,0.9-0.2,1.9-1.2,2.2l-0.2,0.1C269.2,156.1,269,156.1,268.9,156.1z M344.4,155.1
				c-0.2,0-0.3,0-0.5-0.1l-0.2,0c-1-0.2-1.5-1.2-1.3-2.2c0.2-1,1.2-1.5,2.2-1.3l0.2,0c1,0.2,1.5,1.2,1.3,2.2
				C345.9,154.6,345.1,155.1,344.4,155.1z M279.4,153.5c-0.8,0-1.6-0.6-1.8-1.4c-0.2-1,0.4-1.9,1.4-2.1l0.2,0c1-0.2,1.9,0.4,2.1,1.4
				c0.2,1-0.4,1.9-1.4,2.1l-0.2,0C279.7,153.5,279.5,153.5,279.4,153.5z M333.7,152.8c-0.1,0-0.2,0-0.3,0l-0.2,0
				c-1-0.2-1.6-1.1-1.4-2.1c0.2-1,1.1-1.6,2.1-1.4l0.2,0c1,0.2,1.6,1.1,1.5,2.1C335.3,152.2,334.6,152.8,333.7,152.8z"/>
		</g>
		<g>
			<g>
				<g>
					<g>
						<polygon class="st1" points="308.4,76.5 308.4,291.8 283.2,245 						"/>
					</g>
					<g>
						<polygon class="st2" points="308.4,76.5 308.4,291.8 333.6,245 						"/>
					</g>
				</g>
				<g>
					<g>
						<polygon class="st2" points="308.4,506.4 308.4,291.2 283.2,338 						"/>
					</g>
					<g>
						<polygon class="st1" points="308.4,506.4 308.4,291.2 333.6,338 						"/>
					</g>
				</g>
			</g>
			<g>
				<g>
					<g>
						<polygon class="st1" points="523.4,291.5 308.1,291.5 354.9,266.3 						"/>
					</g>
					<g>
						<polygon class="st2" points="523.4,291.5 308.1,291.5 354.9,316.7 						"/>
					</g>
				</g>
				<g>
					<g>
						<polygon class="st2" points="93.4,291.5 308.7,291.5 261.9,266.3 						"/>
					</g>
					<g>
						<polygon class="st1" points="93.4,291.5 308.7,291.5 261.9,316.7 						"/>
					</g>
				</g>
			</g>
			<g>
				<g>
					<g>
						<polygon class="st1" points="418.9,180.9 308.2,291.6 333.6,245 						"/>
					</g>
					<g>
						<polygon class="st2" points="418.9,181 308.3,291.6 354.9,266.3 						"/>
					</g>
				</g>
				<g>
					<g>
						<polygon class="st2" points="197.9,402 308.5,291.3 261.9,316.7 						"/>
					</g>
					<g>
						<polygon class="st1" points="197.9,402 308.6,291.3 283.2,338 						"/>
					</g>
				</g>
			</g>
			<g>
				<g>
					<g>
						<polygon class="st2" points="197.9,180.9 308.6,291.6 283.2,245 						"/>
					</g>
					<g>
						<polygon class="st1" points="197.9,181 308.5,291.6 261.9,266.3 						"/>
					</g>
				</g>
				<g>
					<g>
						<polygon class="st1" points="418.9,402 308.3,291.3 354.9,316.7 						"/>
					</g>
					<g>
						<polygon class="st2" points="418.9,402 308.2,291.3 333.6,338 						"/>
					</g>
				</g>
			</g>
			<circle class="st1" cx="310.4" cy="291.8" r="26.3"/>
			<circle class="st2" cx="310.4" cy="291.8" r="12"/>
		</g>
		<g>
			<g>
				<path class="st2" d="M216.4,166.1c13.7-10,29-17.9,45.6-23.1l-12.8-25.4c-16.4,5.6-31.7,13.4-45.6,23.1L216.4,166.1z"/>
				<path class="st2" d="M400.4,416.9c-13.7,10-29,17.9-45.6,23.1l12.8,25.4c16.4-5.6,31.7-13.4,45.6-23.1L400.4,416.9z"/>
			</g>
			<g>
				<path class="st2" d="M400.4,166.1c-13.7-10-29-17.9-45.6-23.1l12.8-25.4c16.4,5.6,31.7,13.4,45.6,23.1L400.4,166.1z"/>
				<path class="st2" d="M216.4,416.9c13.7,10,29,17.9,45.6,23.1l-12.8,25.4c-16.4-5.6-31.7-13.4-45.6-23.1L216.4,416.9z"/>
			</g>
			<g>
				<path class="st2" d="M460.9,260.7c-3.3-16.6-9.4-32.8-18.2-47.8l26.5-10.1c8.3,15.1,14.4,31.2,18.1,47.8L460.9,260.7z"/>
				<path class="st2" d="M155.9,322.2c3.3,16.6,9.4,32.8,18.2,47.8l-26.5,10.1c-8.3-15.1-14.4-31.2-18.2-47.8L155.9,322.2z"/>
			</g>
			<g>
				<path class="st2" d="M156.8,256.6c3.8-16.5,10.3-32.5,19.4-47.3L150,198.6c-8.7,14.9-15.2,30.8-19.4,47.3L156.8,256.6z"/>
				<path class="st2" d="M460,326.3c-3.8,16.5-10.3,32.5-19.4,47.3l26.3,10.8c8.7-14.9,15.2-30.8,19.4-47.3L460,326.3z"/>
			</g>
		</g>
	</g>
	<g>
		<text transform="matrix(1 0 0 1 282.6603 67.5489)" class="st5 st6 st7">N</text>
		<text transform="matrix(1 0 0 1 534.3517 307.8634)" class="st5 st6 st7">E</text>
		<text transform="matrix(1 0 0 1 5.5406 307.8634)" class="st5 st6 st7">W</text>
		<text transform="matrix(1 0 0 1 284.6266 573.3087)" class="st5 st6 st7">S</text>
	</g>
	<g class="st3">
		<g>
			<g>
				<g>
					<g>
						<polygon class="st2" points="448.8,150.3 452.3,153.8 460.8,141.8 469.3,129.8 457.3,138.3 445.3,146.8 						"/>
					</g>
				</g>
				<g>
					<g>
						<polygon class="st2" points="425.1,130.3 429.1,133.2 435.6,120 442.1,106.8 431.6,117.1 421.1,127.4 						"/>
					</g>
				</g>
				<g>
					<g>
						<polygon class="st2" points="505,258.9 505.8,263.7 519.7,259 533.6,254.2 518.9,254.1 504.2,254 						"/>
					</g>
				</g>
				<g>
					<g>
						<polygon class="st2" points="471.2,406.5 468.3,410.5 481.5,417 494.7,423.5 484.4,413 474,402.5 						"/>
					</g>
				</g>
				<g>
					<g>
						<polygon class="st2" points="397.9,113.8 402.3,116 406.6,101.9 410.9,87.8 402.2,99.7 393.5,111.6 						"/>
					</g>
				</g>
				<g>
					<g>
						<polygon class="st2" points="487.4,379.1 485.2,383.5 499.3,387.8 513.4,392.1 501.5,383.4 489.6,374.7 						"/>
					</g>
				</g>
				<g>
					<g>
						<polygon class="st2" points="369.2,102.1 373.9,103.6 376,89.1 378.1,74.5 371.3,87.6 364.6,100.6 						"/>
					</g>
				</g>
				<g>
					<polygon class="st2" points="485.1,199.5 487.4,203.9 499.1,195.1 510.9,186.2 496.9,190.7 482.8,195.2 					"/>
				</g>
				<g>
					<g>
						<polygon class="st2" points="338.9,95 343.8,95.8 343.5,81.1 343.3,66.3 338.7,80.3 334,94.3 						"/>
					</g>
				</g>
				<g>
					<polygon class="st2" points="468.6,173.1 471.5,177.1 481.7,166.5 491.9,156 478.8,162.6 465.6,169.2 					"/>
				</g>
				<g>
					<g>
						<polygon class="st2" points="505.7,320 504.9,324.8 519.6,324.6 534.4,324.4 520.4,319.7 506.4,315.1 						"/>
					</g>
				</g>
				<g>
					<g>
						<g>
							<polygon class="st2" points="340.8,488 345.7,487.2 345.6,501.9 345.5,516.6 340.8,502.7 336,488.8 							"/>
						</g>
					</g>
				</g>
				<g>
					<g>
						<g>
							<polygon class="st2" points="370.1,480.9 374.8,479.3 376.9,493.9 379,508.5 372.2,495.4 365.4,482.4 							"/>
						</g>
					</g>
				</g>
				<g>
					<g>
						<g>
							<polygon class="st2" points="370.1,480.9 374.8,479.3 376.9,493.9 379,508.5 372.2,495.4 365.4,482.4 							"/>
						</g>
					</g>
				</g>
				<g>
					<g>
						<g>
							<polygon class="st2" points="399.3,468.6 403.7,466.4 408.1,480.4 412.6,494.5 403.8,482.7 395,470.9 							"/>
						</g>
					</g>
				</g>
				<g>
					<g>
						<g>
							<polygon class="st2" points="399.3,468.6 403.7,466.4 408.1,480.4 412.6,494.5 403.8,482.7 395,470.9 							"/>
						</g>
					</g>
				</g>
				<g>
					<g>
						<g>
							<polygon class="st2" points="426.1,452.1 430.1,449.1 436.7,462.3 443.2,475.5 432.7,465.2 422.1,455 							"/>
						</g>
					</g>
				</g>
				<g>
					<g>
						<polygon class="st2" points="449.7,431.7 453.2,428.2 461.7,440.2 470.2,452.2 458.2,443.7 446.2,435.2 						"/>
					</g>
				</g>
			</g>
			<g>
				<g>
					<g>
						<polygon class="st2" points="166.5,150.3 163,153.8 154.5,141.8 145.9,129.8 157.9,138.3 169.9,146.8 						"/>
					</g>
				</g>
				<g>
					<g>
						<polygon class="st2" points="190.1,130.3 186.1,133.2 179.6,120 173.1,106.8 183.6,117.1 194.1,127.4 						"/>
					</g>
				</g>
				<g>
					<g>
						<polygon class="st2" points="110.3,258.9 109.5,263.7 95.5,259 81.6,254.2 96.3,254.1 111.1,254 						"/>
					</g>
				</g>
				<g>
					<g>
						<polygon class="st2" points="144.1,406.5 147,410.5 133.8,417 120.6,423.5 130.9,413 141.2,402.5 						"/>
					</g>
				</g>
				<g>
					<g>
						<polygon class="st2" points="217.4,113.8 213,116 208.6,101.9 204.4,87.8 213.1,99.7 221.8,111.6 						"/>
					</g>
				</g>
				<g>
					<g>
						<polygon class="st2" points="127.8,379.1 130,383.5 116,387.8 101.9,392.1 113.8,383.4 125.6,374.7 						"/>
					</g>
				</g>
				<g>
					<g>
						<polygon class="st2" points="246,102.1 241.3,103.6 239.3,89.1 237.2,74.5 243.9,87.6 250.7,100.6 						"/>
					</g>
				</g>
				<g>
					<polygon class="st2" points="130.1,199.5 127.9,203.9 116.1,195.1 104.4,186.2 118.4,190.7 132.4,195.2 					"/>
				</g>
				<g>
					<g>
						<polygon class="st2" points="276.3,95 271.5,95.8 271.7,81.1 272,66.3 276.6,80.3 281.2,94.3 						"/>
					</g>
				</g>
				<g>
					<polygon class="st2" points="146.7,173.1 143.8,177.1 133.5,166.5 123.3,156 136.5,162.6 149.6,169.2 					"/>
				</g>
				<g>
					<g>
						<polygon class="st2" points="109.6,320 110.3,324.8 95.6,324.6 80.9,324.4 94.9,319.7 108.8,315.1 						"/>
					</g>
				</g>
				<g>
					<g>
						<g>
							<polygon class="st2" points="274.4,488 269.5,487.2 269.6,501.9 269.7,516.6 274.5,502.7 279.3,488.8 							"/>
						</g>
					</g>
				</g>
				<g>
					<g>
						<g>
							<polygon class="st2" points="245.1,480.9 240.5,479.3 238.3,493.9 236.2,508.5 243,495.4 249.8,482.4 							"/>
						</g>
					</g>
				</g>
				<g>
					<g>
						<g>
							<polygon class="st2" points="245.1,480.9 240.5,479.3 238.3,493.9 236.2,508.5 243,495.4 249.8,482.4 							"/>
						</g>
					</g>
				</g>
				<g>
					<g>
						<g>
							<polygon class="st2" points="215.9,468.6 211.5,466.4 207.1,480.4 202.7,494.5 211.5,482.7 220.3,470.9 							"/>
						</g>
					</g>
				</g>
				<g>
					<g>
						<g>
							<polygon class="st2" points="215.9,468.6 211.5,466.4 207.1,480.4 202.7,494.5 211.5,482.7 220.3,470.9 							"/>
						</g>
					</g>
				</g>
				<g>
					<g>
						<g>
							<polygon class="st2" points="189.1,452.1 185.1,449.1 178.6,462.3 172,475.5 182.5,465.2 193.1,455 							"/>
						</g>
					</g>
				</g>
				<g>
					<g>
						<polygon class="st2" points="165.5,431.7 162.1,428.2 153.5,440.2 145,452.2 157,443.7 169,435.2 						"/>
					</g>
				</g>
			</g>
		</g>
		<g>
			<g>
				<g>
					<polygon class="st2" points="497.1,228 498.6,232.7 511.7,226.1 524.9,219.6 510.3,221.4 495.7,223.3 					"/>
				</g>
			</g>
			<g>
				<g>
					<polygon class="st2" points="498.9,350.4 497.4,355.1 512,357 526.6,358.9 513.5,352.3 500.3,345.7 					"/>
				</g>
			</g>
		</g>
		<g>
			<g>
				<g>
					<polygon class="st2" points="118.1,228 116.7,232.7 103.5,226.1 90.4,219.6 105,221.4 119.5,223.3 					"/>
				</g>
			</g>
			<g>
				<g>
					<polygon class="st2" points="116.4,350.4 117.8,355.1 103.2,357 88.6,358.9 101.8,352.3 114.9,345.7 					"/>
				</g>
			</g>
		</g>
	</g>
</g>
</svg>
